#!OML:ASF H:\MichaelJackson\Top Level 1\Subject 1\Session 1\male.ASF
:FULLY-SPECIFIED
:DEGREES
1
root 21.0036 16.8198 -18.8633 10.3842 10.8567 -3.55868
lowerback 6.08113 5.5503 -1.54161
upperback -0.185377 7.3615 1.88556
thorax -4.02755 3.70685 2.08448
lowerneck -9.83779 -6.71185 6.51952
upperneck 2.45622 -9.62655 -2.07458
head 2.05231 -4.79294 -2.21777
rclavicle -3.69739e-014 -9.93923e-015
rhumerus -40.0571 -5.89488 -78.041
rradius 67.7636
rwrist -0.681005
rhand -31.6202 -17.0964
rfingers 7.12502
rthumb -4.88199 -47.0201
lclavicle -3.69739e-014 -9.93923e-015
lhumerus -55.5933 -16.6329 103.207
lradius 46.0802
lwrist 13.6758
lhand -20.8526 4.72218
lfingers 7.12502
lthumb 5.51671 34.6304
rfemur -28.4306 -10.6965 24.4057
rtibia 69.3029
rfoot 25.8428 10.0015
rtoes 23.1596
lfemur -35.0344 6.65178 -21.3988
ltibia 37.3119
lfoot -13.4749 1.77623
ltoes 18.4624
2
root 21.027 16.8802 -18.743 10.3914 10.5124 -2.81163
lowerback 6.29443 5.39369 -2.20476
upperback -0.0507299 7.09435 1.76476
thorax -4.05803 3.58413 2.33754
lowerneck -9.46778 -6.52635 6.20295
upperneck 2.05694 -9.31763 -2.03388
head 1.88368 -4.6493 -2.10688
rclavicle -5.35725e-014 -1.78906e-014
rhumerus -40.1151 -6.54288 -78.3525
rradius 66.9805
rwrist -1.73578
rhand -31.9177 -18.0782
rfingers 7.12502
rthumb -5.16931 -47.9952
lclavicle -5.35725e-014 -1.78906e-014
lhumerus -54.6316 -16.4429 103.144
lradius 45.5806
lwrist 13.5958
lhand -20.5063 4.6311
lfingers 7.12502
lthumb 5.85104 34.5303
rfemur -31.2172 -9.9295 23.2728
rtibia 72.1035
rfoot 29.7934 7.74669
rtoes 27.3646
lfemur -33.7203 6.86173 -22.1629
ltibia 36.2332
lfoot -13.7381 1.74758
ltoes 18.3151
3
root 21.0478 16.8435 -18.6304 10.3195 10.1536 -2.06209
lowerback 6.54849 5.24224 -2.84974
upperback 0.0972813 6.8318 1.63814
thorax -4.09 3.4626 2.57377
lowerneck -9.17917 -6.33101 5.91148
upperneck 1.74166 -9.00643 -2.00975
head 1.75577 -4.50199 -2.01455
rclavicle 6.31141e-014 4.77083e-015
rhumerus -40.1661 -7.14081 -78.6755
rradius 65.9908
rwrist -2.05588
rhand -32.62 -19.5483
rfingers 7.12502
rthumb -5.84731 -49.4476
lclavicle 6.31141e-014 4.77083e-015
lhumerus -53.572 -16.3414 103.075
lradius 44.959
lwrist 13.4379
lhand -20.1401 4.35461
lfingers 7.12502
lthumb 6.20457 34.2437
rfemur -32.6724 -9.66618 22.4817
rtibia 74.2356
rfoot 31.8461 9.68148
rtoes 19.3783
lfemur -32.7896 6.94403 -22.9042
ltibia 35.819
lfoot -14.1414 2.11569
ltoes 17.5798
4
root 21.0792 16.8464 -18.5223 10.382 9.76335 -1.46659
lowerback 6.67668 5.11165 -3.19811
upperback 0.185804 6.6216 1.51529
thorax -4.07949 3.3617 2.65595
lowerneck -8.96317 -6.14062 5.56341
upperneck 1.51177 -8.70305 -1.97751
head 1.67082 -4.3564 -1.91801
rclavicle 1.66979e-013 -6.75868e-015
rhumerus -40.1901 -7.73174 -78.892
rradius 64.7824
rwrist -1.97571
rhand -33.2571 -20.7353
rfingers 7.12502
rthumb -6.46243 -50.6167
lclavicle 1.66979e-013 -6.75868e-015
lhumerus -52.4127 -16.394 103.084
lradius 44.227
lwrist 13.2681
lhand -20.0663 4.19586
lfingers 7.12502
lthumb 6.27584 34.0829
rfemur -34.9689 -9.00187 21.613
rtibia 76.3714
rfoot 34.1511 8.33284
rtoes 22.0716
lfemur -31.8847 6.82716 -23.4879
ltibia 35.1442
lfoot -14.3944 2.51013
ltoes 18.1061
5
root 21.098 16.9091 -18.3931 10.1331 9.78043 -1.26541
lowerback 6.83535 4.90259 -3.27664
upperback 0.285683 6.33405 1.56758
thorax -4.0571 3.21912 2.77836
lowerneck -8.71825 -5.97101 5.24932
upperneck 1.43577 -8.43192 -1.94657
head 1.62749 -4.22339 -1.83312
rclavicle 4.08502e-014 -5.1684e-015
rhumerus -40.2126 -8.23088 -79.0408
rradius 62.9066
rwrist -1.06875
rhand -34.1389 -22.0566
rfingers 7.12502
rthumb -7.31361 -51.9102
lclavicle 4.08502e-014 -5.1684e-015
lhumerus -51.1304 -16.4447 102.989
lradius 43.4169
lwrist 12.4689
lhand -20.4788 5.23112
lfingers 7.12502
lthumb 5.87761 35.1296
rfemur -36.5309 -8.55626 21.4405
rtibia 77.9294
rfoot 32.609 8.73229
rtoes 23.0675
lfemur -30.6826 6.56124 -23.5272
ltibia 34.6457
lfoot -14.7022 2.73019
ltoes 18.2353
6
root 21.1207 16.9169 -18.2729 10.0329 9.66259 -0.867528
lowerback 6.95107 4.7036 -3.50019
upperback 0.376755 6.04564 1.52531
thorax -4.02313 3.07759 2.88731
lowerneck -8.48186 -5.78178 4.95386
upperneck 1.28639 -8.13868 -1.90915
head 1.56132 -4.07997 -1.7473
rclavicle -8.94531e-015 2.0276e-014
rhumerus -40.2504 -8.78932 -79.1921
rradius 61.3887
rwrist -0.711386
rhand -34.7517 -23.3136
rfingers 7.12502
rthumb -7.90516 -53.1458
lclavicle -8.94531e-015 2.0276e-014
lhumerus -49.9423 -16.4617 102.871
lradius 42.7788
lwrist 11.8592
lhand -20.5001 5.84652
lfingers 7.12502
lthumb 5.85698 35.7456
rfemur -38.399 -8.14531 20.9688
rtibia 79.6018
rfoot 32.7913 8.93086
rtoes 23.0751
lfemur -29.6755 6.37645 -23.8511
ltibia 34.0632
lfoot -14.9243 2.9986
ltoes 18.2294
7
root 21.1429 16.9243 -18.1505 9.93374 9.62987 -0.536705
lowerback 7.01407 4.47032 -3.62925
upperback 0.453676 5.72095 1.48745
thorax -3.96058 2.91621 2.95723
lowerneck -8.26091 -5.58427 4.67403
upperneck 1.18505 -7.83892 -1.85583
head 1.51299 -3.93172 -1.6618
rclavicle -1.49089e-014 -2.46493e-014
rhumerus -40.2791 -9.30412 -79.3345
rradius 59.7364
rwrist -0.21775
rhand -35.2883 -24.5521
rfingers 7.12502
rthumb -8.42298 -54.3642
lclavicle -1.49089e-014 -2.46493e-014
lhumerus -48.7415 -16.464 102.683
lradius 42.2205
lwrist 11.0517
lhand -20.4769 6.66488
lfingers 7.12502
lthumb 5.87938 36.5633
rfemur -40.1816 -7.79656 20.6247
rtibia 81.0362
rfoot 32.3253 9.28431
rtoes 22.9783
lfemur -28.6897 6.14175 -24.0989
ltibia 33.4799
lfoot -15.1049 3.24013
ltoes 18.2059
8
root 21.1649 16.9341 -18.0258 9.85209 9.66978 -0.260821
lowerback 7.01517 4.21314 -3.68543
upperback 0.513142 5.37263 1.45151
thorax -3.8719 2.74175 2.99541
lowerneck -8.06003 -5.38686 4.41941
upperneck 1.12966 -7.54431 -1.79242
head 1.48149 -3.78486 -1.58031
rclavicle -2.19657e-014 -1.59028e-015
rhumerus -40.3097 -9.77882 -79.4581
rradius 57.9796
rwrist 0.33349
rhand -35.7207 -25.7512
rfingers 7.12502
rthumb -8.84032 -55.546
lclavicle -2.19657e-014 -1.59028e-015
lhumerus -47.5595 -16.4513 102.431
lradius 41.8017
lwrist 10.0458
lhand -20.358 7.64321
lfingers 7.12502
lthumb 5.99422 37.5384
rfemur -41.9471 -7.48153 20.3744
rtibia 82.3246
rfoot 31.3734 9.45734
rtoes 23.4312
lfemur -27.8502 5.89104 -24.2923
ltibia 33.1478
lfoot -15.3951 3.45545
ltoes 18.1576
